<mxfile host="app.diagrams.net" modified="2024-06-01T19:13:22.391Z" agent="Mozilla/5.0 (X11; Linux x86_64) AppleWebKit/537.36 (KHTML, like Gecko) Chrome/125.0.0.0 Safari/537.36" etag="DB8yC8PBVVvNRIqQAgi2" version="24.4.13" type="device" pages="2">
  <diagram name="heap" id="iojS-CCnx_bVfTF9nqe0">
    <mxGraphModel dx="759" dy="793" grid="1" gridSize="10" guides="1" tooltips="1" connect="1" arrows="1" fold="1" page="1" pageScale="1" pageWidth="1100" pageHeight="850" math="0" shadow="0">
      <root>
        <mxCell id="0" />
        <mxCell id="1" parent="0" />
        <mxCell id="_qikQMmCD5JVBKFu7b-j-10" value="The Process in RAM" style="rounded=0;whiteSpace=wrap;html=1;hachureGap=4;fontFamily=Architects Daughter;fontSource=https%3A%2F%2Ffonts.googleapis.com%2Fcss%3Ffamily%3DArchitects%2BDaughter;movable=1;resizable=1;rotatable=1;deletable=1;editable=1;locked=0;connectable=1;labelPosition=center;verticalLabelPosition=top;align=center;verticalAlign=bottom;fontSize=12;fontStyle=1;" parent="1" vertex="1">
          <mxGeometry x="480" y="160" width="170" height="340" as="geometry" />
        </mxCell>
        <mxCell id="_qikQMmCD5JVBKFu7b-j-36" value="" style="endArrow=classic;html=1;rounded=0;" parent="1" edge="1">
          <mxGeometry width="50" height="50" relative="1" as="geometry">
            <mxPoint x="660" y="170" as="sourcePoint" />
            <mxPoint x="660" y="230" as="targetPoint" />
          </mxGeometry>
        </mxCell>
        <mxCell id="yPALnYSojwXTfseWu5V9-4" value="&lt;font face=&quot;Architects Daughter&quot;&gt;direction of growth&lt;/font&gt;" style="text;html=1;align=center;verticalAlign=middle;whiteSpace=wrap;rounded=0;" parent="1" vertex="1">
          <mxGeometry x="660" y="170" width="140" height="30" as="geometry" />
        </mxCell>
        <mxCell id="yPALnYSojwXTfseWu5V9-5" value="0x33333" style="text;html=1;align=right;verticalAlign=middle;whiteSpace=wrap;rounded=0;fontStyle=1;spacingRight=3;fontColor=#FF0000;" parent="1" vertex="1">
          <mxGeometry x="400" y="280" width="80" height="30" as="geometry" />
        </mxCell>
        <mxCell id="C56rg1Ma0Jg-8kV4Vnkv-1" value="&lt;b&gt;TEXT/CODE&lt;/b&gt;" style="rounded=0;whiteSpace=wrap;html=1;fontFamily=Courier New;" vertex="1" parent="1">
          <mxGeometry x="490" y="430" width="150" height="60" as="geometry" />
        </mxCell>
        <mxCell id="C56rg1Ma0Jg-8kV4Vnkv-2" value="&lt;b&gt;DATA/STATIC&lt;/b&gt;&lt;div&gt;&lt;br&gt;&lt;/div&gt;&lt;div&gt;char *c=0x22222&lt;/div&gt;" style="rounded=0;whiteSpace=wrap;html=1;fontFamily=Courier New;" vertex="1" parent="1">
          <mxGeometry x="490" y="370" width="150" height="60" as="geometry" />
        </mxCell>
        <mxCell id="C56rg1Ma0Jg-8kV4Vnkv-3" value="&lt;b&gt;&lt;font color=&quot;#ff0000&quot;&gt;HEAP&lt;/font&gt;&lt;/b&gt;" style="rounded=0;whiteSpace=wrap;html=1;fontFamily=Courier New;strokeColor=#FF0000;" vertex="1" parent="1">
          <mxGeometry x="490" y="260" width="150" height="110" as="geometry" />
        </mxCell>
        <mxCell id="C56rg1Ma0Jg-8kV4Vnkv-11" style="edgeStyle=orthogonalEdgeStyle;rounded=0;orthogonalLoop=1;jettySize=auto;html=1;exitX=0;exitY=0.75;exitDx=0;exitDy=0;curved=1;entryX=0.25;entryY=0;entryDx=0;entryDy=0;" edge="1" parent="1" source="C56rg1Ma0Jg-8kV4Vnkv-4" target="C56rg1Ma0Jg-8kV4Vnkv-7">
          <mxGeometry relative="1" as="geometry" />
        </mxCell>
        <mxCell id="C56rg1Ma0Jg-8kV4Vnkv-4" value="&lt;b&gt;STACK&lt;/b&gt;&lt;div&gt;&lt;br&gt;&lt;/div&gt;&lt;div&gt;int *a=0x33333&lt;/div&gt;" style="rounded=0;whiteSpace=wrap;html=1;fontFamily=Courier New;" vertex="1" parent="1">
          <mxGeometry x="490" y="170" width="150" height="60" as="geometry" />
        </mxCell>
        <mxCell id="C56rg1Ma0Jg-8kV4Vnkv-5" value="" style="endArrow=none;html=1;rounded=0;startArrow=classic;startFill=1;endFill=0;strokeColor=#FF0000;" edge="1" parent="1">
          <mxGeometry width="50" height="50" relative="1" as="geometry">
            <mxPoint x="660" y="260" as="sourcePoint" />
            <mxPoint x="660" y="370" as="targetPoint" />
          </mxGeometry>
        </mxCell>
        <mxCell id="C56rg1Ma0Jg-8kV4Vnkv-6" value="&lt;font face=&quot;Architects Daughter&quot;&gt;direction of growth&lt;/font&gt;" style="text;html=1;align=center;verticalAlign=middle;whiteSpace=wrap;rounded=0;fontColor=#FF0000;" vertex="1" parent="1">
          <mxGeometry x="660" y="340" width="140" height="30" as="geometry" />
        </mxCell>
        <mxCell id="C56rg1Ma0Jg-8kV4Vnkv-7" value="9000" style="text;html=1;align=left;verticalAlign=middle;whiteSpace=wrap;rounded=0;spacingLeft=5;" vertex="1" parent="1">
          <mxGeometry x="490" y="280" width="60" height="30" as="geometry" />
        </mxCell>
        <mxCell id="C56rg1Ma0Jg-8kV4Vnkv-8" value="&amp;nbsp;d" style="text;html=1;align=left;verticalAlign=middle;whiteSpace=wrap;rounded=0;spacingLeft=5;" vertex="1" parent="1">
          <mxGeometry x="490" y="330" width="60" height="30" as="geometry" />
        </mxCell>
        <mxCell id="C56rg1Ma0Jg-8kV4Vnkv-9" value="0x22222" style="text;html=1;align=right;verticalAlign=middle;whiteSpace=wrap;rounded=0;fontStyle=1;spacingRight=3;fontColor=#FF0000;" vertex="1" parent="1">
          <mxGeometry x="400" y="330" width="80" height="30" as="geometry" />
        </mxCell>
        <mxCell id="djNbKDSS3JOpmXhhxImD-2" style="edgeStyle=orthogonalEdgeStyle;rounded=0;orthogonalLoop=1;jettySize=auto;html=1;exitX=0;exitY=0.75;exitDx=0;exitDy=0;entryX=0.25;entryY=1;entryDx=0;entryDy=0;curved=1;" edge="1" parent="1" target="C56rg1Ma0Jg-8kV4Vnkv-8">
          <mxGeometry relative="1" as="geometry">
            <mxPoint x="490" y="415" as="sourcePoint" />
            <mxPoint x="505" y="370" as="targetPoint" />
            <Array as="points">
              <mxPoint x="490" y="416" />
              <mxPoint x="460" y="416" />
              <mxPoint x="460" y="393" />
              <mxPoint x="506" y="393" />
            </Array>
          </mxGeometry>
        </mxCell>
      </root>
    </mxGraphModel>
  </diagram>
  <diagram id="IsoR7kzkYtjIUxYW8Evj" name="Page-2">
    <mxGraphModel grid="1" page="1" gridSize="10" guides="1" tooltips="1" connect="1" arrows="1" fold="1" pageScale="1" pageWidth="1100" pageHeight="850" math="0" shadow="0">
      <root>
        <mxCell id="0" />
        <mxCell id="1" parent="0" />
      </root>
    </mxGraphModel>
  </diagram>
</mxfile>
